<svg xmlns="http://www.w3.org/2000/svg" xmlns:xlink="http://www.w3.org/1999/xlink" width="54.781" height="46.906" viewBox="0 0 54.781 46.906">
  <metadata><?xpacket begin="﻿" id="W5M0MpCehiHzreSzNTczkc9d"?>
<x:xmpmeta xmlns:x="adobe:ns:meta/" x:xmptk="Adobe XMP Core 5.6-c138 79.159824, 2016/09/14-01:09:01        ">
   <rdf:RDF xmlns:rdf="http://www.w3.org/1999/02/22-rdf-syntax-ns#">
      <rdf:Description rdf:about=""/>
   </rdf:RDF>
</x:xmpmeta>
                                                                                                    
                                                                                                    
                                                                                                    
                                                                                                    
                                                                                                    
                                                                                                    
                                                                                                    
                                                                                                    
                                                                                                    
                                                                                                    
                                                                                                    
                                                                                                    
                                                                                                    
                                                                                                    
                                                                                                    
                                                                                                    
                                                                                                    
                                                                                                    
                                                                                                    
                                                                                                    
                           
<?xpacket end="w"?></metadata>
<defs>
    <style>
      .cls-1 {
        fill-rule: evenodd;
        filter: url(#filter);
      }
    </style>
    <filter id="filter" x="0.125" y="0.063" width="54.781" height="46.906" filterUnits="userSpaceOnUse">
      <feFlood result="flood" flood-color="#555"/>
      <feComposite result="composite" operator="in" in2="SourceGraphic"/>
      <feBlend result="blend" in2="SourceGraphic"/>
    </filter>
  </defs>
  <path id="Forma_1" data-name="Forma 1" class="cls-1" d="M54.529,35.653L44.183,31.177,29.29,37.125a5.168,5.168,0,0,1-3.577,0l-14.9-5.949L0.47,35.653C0,35.856,0,36.176.48,36.367L26.637,46.813a2.68,2.68,0,0,0,1.726,0L54.52,36.367C55,36.176,55,35.856,54.529,35.653Zm0-12.064L44.182,19.112,29.29,25.059a5.157,5.157,0,0,1-3.579,0L10.816,19.112,0.47,23.589C0,23.792,0,24.112.48,24.3L26.637,34.749a2.68,2.68,0,0,0,1.726,0L54.52,24.3C55,24.112,55,23.793,54.529,23.589ZM0.48,12.239l13.64,5.448,12.517,5a2.68,2.68,0,0,0,1.726,0l12.521-5L54.52,12.24c0.476-.19.481-0.509,0.01-0.714L28.352,0.2a2.46,2.46,0,0,0-1.705,0L0.47,11.525C0,11.73,0,12.049.48,12.239Z" transform="translate(-0.125 -0.063)"/>
</svg>
